<?xml version="1.0" encoding="UTF-8"?>
<svg xmlns="http://www.w3.org/2000/svg" xmlns:xlink="http://www.w3.org/1999/xlink" width="900" height="280" viewBox="0 0 900 280">
<defs>
<linearGradient id="linear-pattern-0" gradientUnits="userSpaceOnUse" x1="0" y1="0" x2="900" y2="280">
<stop offset="0" stop-color="rgb(8.235294%, 8.235294%, 11.764706%)" stop-opacity="1"/>
<stop offset="1" stop-color="rgb(10.196078%, 10.196078%, 18.039216%)" stop-opacity="1"/>
</linearGradient>
<linearGradient id="linear-pattern-1" gradientUnits="userSpaceOnUse" x1="0" y1="0" x2="900" y2="0">
<stop offset="0" stop-color="rgb(88.2%, 2.4%, 0%)" stop-opacity="0"/>
<stop offset="0.5" stop-color="rgb(88.2%, 2.4%, 0%)" stop-opacity="0.15"/>
<stop offset="1" stop-color="rgb(88.2%, 2.4%, 0%)" stop-opacity="0"/>
</linearGradient>
<linearGradient id="linear-pattern-2" gradientUnits="userSpaceOnUse" x1="0" y1="0" x2="900" y2="0">
<stop offset="0" stop-color="rgb(88.2%, 2.4%, 0%)" stop-opacity="0"/>
<stop offset="0.15" stop-color="rgb(88.2%, 2.4%, 0%)" stop-opacity="1"/>
<stop offset="0.85" stop-color="rgb(88.2%, 2.4%, 0%)" stop-opacity="1"/>
<stop offset="1" stop-color="rgb(88.2%, 2.4%, 0%)" stop-opacity="0"/>
</linearGradient>
<linearGradient id="linear-pattern-3" gradientUnits="userSpaceOnUse" x1="0" y1="0" x2="900" y2="0">
<stop offset="0" stop-color="rgb(88.2%, 2.4%, 0%)" stop-opacity="0"/>
<stop offset="0.15" stop-color="rgb(88.2%, 2.4%, 0%)" stop-opacity="1"/>
<stop offset="0.85" stop-color="rgb(88.2%, 2.4%, 0%)" stop-opacity="1"/>
<stop offset="1" stop-color="rgb(88.2%, 2.4%, 0%)" stop-opacity="0"/>
</linearGradient>
</defs>
<rect x="-90" y="-28" width="1080" height="336" fill="url(#linear-pattern-0)"/>
<path fill="none" stroke-width="0.5" stroke-linecap="butt" stroke-linejoin="miter" stroke="rgb(100%, 100%, 100%)" stroke-opacity="0.04" stroke-miterlimit="10" d="M 0 70 L 900 70 "/>
<path fill="none" stroke-width="0.5" stroke-linecap="butt" stroke-linejoin="miter" stroke="rgb(100%, 100%, 100%)" stroke-opacity="0.04" stroke-miterlimit="10" d="M 0 140 L 900 140 "/>
<path fill="none" stroke-width="0.5" stroke-linecap="butt" stroke-linejoin="miter" stroke="rgb(100%, 100%, 100%)" stroke-opacity="0.04" stroke-miterlimit="10" d="M 0 210 L 900 210 "/>
<path fill="none" stroke-width="0.5" stroke-linecap="butt" stroke-linejoin="miter" stroke="rgb(100%, 100%, 100%)" stroke-opacity="0.04" stroke-miterlimit="10" d="M 225 0 L 225 280 "/>
<path fill="none" stroke-width="0.5" stroke-linecap="butt" stroke-linejoin="miter" stroke="rgb(100%, 100%, 100%)" stroke-opacity="0.04" stroke-miterlimit="10" d="M 450 0 L 450 280 "/>
<path fill="none" stroke-width="0.5" stroke-linecap="butt" stroke-linejoin="miter" stroke="rgb(100%, 100%, 100%)" stroke-opacity="0.04" stroke-miterlimit="10" d="M 675 0 L 675 280 "/>
<path fill-rule="nonzero" fill="url(#linear-pattern-1)" d="M 0 105 L 900 105 L 900 175 L 0 175 Z M 0 105 "/>
<path fill-rule="nonzero" fill="url(#linear-pattern-2)" d="M 0 100 L 900 100 L 900 102 L 0 102 Z M 0 100 "/>
<path fill-rule="nonzero" fill="url(#linear-pattern-3)" d="M 0 178 L 900 178 L 900 180 L 0 180 Z M 0 178 "/>
<path fill-rule="nonzero" fill="rgb(100%, 100%, 100%)" fill-opacity="1" d="M 332.863281 107.453125 L 332.863281 117.3125 L 312.269531 117.3125 L 312.269531 127.96875 L 327.675781 127.96875 L 327.675781 137.546875 L 312.269531 137.546875 L 312.269531 158 L 299.957031 158 L 299.957031 107.453125 Z M 336.808594 116.890625 L 336.808594 105.4375 L 356.761719 105.4375 L 356.761719 158 L 343.949219 158 L 343.949219 116.890625 Z M 377.207031 158 "/>
<path fill-rule="nonzero" fill="rgb(88.2%, 2.4%, 0%)" fill-opacity="1" d="M 413.128906 149.078125 L 394.269531 149.078125 L 391.253906 158 L 378.363281 158 L 396.644531 107.453125 L 410.910156 107.453125 L 429.191406 158 L 416.160156 158 Z M 409.972656 139.5625 L 403.707031 121.0625 L 397.503906 139.5625 Z M 471.097656 107.453125 L 471.097656 117.3125 L 457.707031 117.3125 L 457.707031 158 L 445.394531 158 L 445.394531 117.3125 L 432.003906 117.3125 L 432.003906 107.453125 Z M 489.605469 148.5 L 505.730469 148.5 L 505.730469 158 L 477.292969 158 L 477.292969 107.453125 L 489.605469 107.453125 Z M 543.089844 149.078125 L 524.230469 149.078125 L 521.214844 158 L 508.324219 158 L 526.605469 107.453125 L 540.871094 107.453125 L 559.152344 158 L 546.121094 158 Z M 539.933594 139.5625 L 533.667969 121.0625 L 527.464844 139.5625 Z M 582.980469 158.5 C 579.28125 158.5 575.96875 157.902344 573.042969 156.703125 C 570.113281 155.507812 567.777344 153.730469 566.027344 151.375 C 564.277344 149.023438 563.355469 146.1875 563.261719 142.875 L 576.355469 142.875 C 576.550781 144.75 577.203125 146.183594 578.308594 147.171875 C 579.410156 148.152344 580.847656 148.640625 582.621094 148.640625 C 584.441406 148.640625 585.878906 148.226562 586.933594 147.390625 C 587.996094 146.546875 588.527344 145.382812 588.527344 143.890625 C 588.527344 142.640625 588.105469 141.609375 587.261719 140.796875 C 586.425781 139.976562 585.394531 139.304688 584.167969 138.78125 C 582.949219 138.25 581.207031 137.648438 578.949219 136.96875 C 575.6875 135.96875 573.019531 134.964844 570.949219 133.953125 C 568.886719 132.945312 567.109375 131.453125 565.621094 129.484375 C 564.140625 127.515625 563.402344 124.949219 563.402344 121.78125 C 563.402344 117.085938 565.105469 113.402344 568.511719 110.734375 C 571.917969 108.070312 576.355469 106.734375 581.824219 106.734375 C 587.394531 106.734375 591.886719 108.070312 595.292969 110.734375 C 598.699219 113.402344 600.519531 117.109375 600.761719 121.859375 L 587.449219 121.859375 C 587.355469 120.226562 586.753906 118.9375 585.652344 118 C 584.546875 117.0625 583.128906 116.59375 581.402344 116.59375 C 579.910156 116.59375 578.707031 116.992188 577.792969 117.78125 C 576.886719 118.574219 576.433594 119.714844 576.433594 121.203125 C 576.433594 122.839844 577.199219 124.117188 578.730469 125.03125 C 580.269531 125.9375 582.671875 126.917969 585.933594 127.96875 C 589.191406 129.074219 591.84375 130.132812 593.886719 131.140625 C 595.925781 132.152344 597.691406 133.621094 599.183594 135.546875 C 600.671875 137.464844 601.417969 139.933594 601.417969 142.953125 C 601.417969 145.828125 600.683594 148.445312 599.214844 150.796875 C 597.753906 153.152344 595.628906 155.027344 592.839844 156.421875 C 590.058594 157.808594 586.769531 158.5 582.980469 158.5 Z M 604.511719 158 "/>
<path fill-rule="nonzero" fill="rgb(53.3%, 53.3%, 60%)" fill-opacity="1" d="M 308.378906 207.15625 L 308.378906 209.8125 L 311.503906 209.8125 L 311.503906 211.015625 L 308.378906 211.015625 L 308.378906 213.796875 L 311.894531 213.796875 L 311.894531 215 L 306.894531 215 L 306.894531 205.953125 L 311.894531 205.953125 L 311.894531 207.15625 Z M 321.503906 205.96875 L 318.113281 215 L 316.394531 215 L 312.988281 205.96875 L 314.566406 205.96875 L 317.253906 213.484375 L 319.941406 205.96875 Z M 324.214844 207.15625 L 324.214844 209.8125 L 327.339844 209.8125 L 327.339844 211.015625 L 324.214844 211.015625 L 324.214844 213.796875 L 327.730469 213.796875 L 327.730469 215 L 322.730469 215 L 322.730469 205.953125 L 327.730469 205.953125 L 327.730469 207.15625 Z M 334.242188 215 L 332.164062 211.390625 L 331.023438 211.390625 L 331.023438 215 L 329.539062 215 L 329.539062 205.96875 L 332.664062 205.96875 C 333.359375 205.96875 333.949219 206.089844 334.429688 206.328125 C 334.90625 206.570312 335.265625 206.898438 335.507812 207.3125 C 335.746094 207.71875 335.867188 208.171875 335.867188 208.671875 C 335.867188 209.257812 335.695312 209.792969 335.351562 210.28125 C 335.007812 210.761719 334.480469 211.085938 333.773438 211.25 L 336.007812 215 Z M 331.023438 210.203125 L 332.664062 210.203125 C 333.214844 210.203125 333.632812 210.070312 333.914062 209.796875 C 334.195312 209.515625 334.335938 209.140625 334.335938 208.671875 C 334.335938 208.203125 334.195312 207.839844 333.914062 207.578125 C 333.640625 207.308594 333.226562 207.171875 332.664062 207.171875 L 331.023438 207.171875 Z M 344.460938 205.96875 L 341.476562 211.71875 L 341.476562 215 L 339.992188 215 L 339.992188 211.71875 L 336.976562 205.96875 L 338.632812 205.96875 L 340.726562 210.390625 L 342.820312 205.96875 Z M 351.984375 215.09375 C 351.378906 215.09375 350.832031 214.992188 350.34375 214.78125 C 349.863281 214.5625 349.484375 214.261719 349.203125 213.875 C 348.921875 213.480469 348.78125 213.023438 348.78125 212.5 L 350.375 212.5 C 350.40625 212.898438 350.554688 213.21875 350.828125 213.46875 C 351.109375 213.71875 351.492188 213.84375 351.984375 213.84375 C 352.492188 213.84375 352.890625 213.726562 353.171875 213.484375 C 353.460938 213.234375 353.609375 212.914062 353.609375 212.515625 C 353.609375 212.214844 353.519531 211.96875 353.34375 211.78125 C 353.164062 211.585938 352.941406 211.433594 352.671875 211.328125 C 352.410156 211.226562 352.046875 211.117188 351.578125 211 C 350.992188 210.84375 350.515625 210.6875 350.140625 210.53125 C 349.773438 210.367188 349.460938 210.117188 349.203125 209.78125 C 348.941406 209.4375 348.8125 208.984375 348.8125 208.421875 C 348.8125 207.902344 348.941406 207.449219 349.203125 207.0625 C 349.460938 206.667969 349.828125 206.367188 350.296875 206.15625 C 350.765625 205.949219 351.304688 205.84375 351.921875 205.84375 C 352.796875 205.84375 353.507812 206.0625 354.0625 206.5 C 354.625 206.9375 354.9375 207.542969 355 208.3125 L 353.359375 208.3125 C 353.335938 207.980469 353.179688 207.699219 352.890625 207.46875 C 352.609375 207.230469 352.234375 207.109375 351.765625 207.109375 C 351.335938 207.109375 350.988281 207.21875 350.71875 207.4375 C 350.445312 207.65625 350.3125 207.96875 350.3125 208.375 C 350.3125 208.648438 350.394531 208.871094 350.5625 209.046875 C 350.738281 209.226562 350.957031 209.367188 351.21875 209.46875 C 351.476562 209.574219 351.832031 209.6875 352.28125 209.8125 C 352.875 209.980469 353.359375 210.148438 353.734375 210.3125 C 354.117188 210.46875 354.441406 210.71875 354.703125 211.0625 C 354.972656 211.40625 355.109375 211.867188 355.109375 212.4375 C 355.109375 212.898438 354.984375 213.328125 354.734375 213.734375 C 354.484375 214.140625 354.117188 214.46875 353.640625 214.71875 C 353.171875 214.96875 352.617188 215.09375 351.984375 215.09375 Z M 358.339844 207.15625 L 358.339844 209.8125 L 361.464844 209.8125 L 361.464844 211.015625 L 358.339844 211.015625 L 358.339844 213.796875 L 361.855469 213.796875 L 361.855469 215 L 356.855469 215 L 356.855469 205.953125 L 361.855469 205.953125 L 361.855469 207.15625 Z M 369.117188 213.15625 L 365.335938 213.15625 L 364.679688 215 L 363.132812 215 L 366.367188 205.953125 L 368.085938 205.953125 L 371.320312 215 L 369.773438 215 Z M 368.695312 211.9375 L 367.226562 207.75 L 365.757812 211.9375 Z M 375.710938 215.09375 C 375.105469 215.09375 374.558594 214.992188 374.070312 214.78125 C 373.589844 214.5625 373.210938 214.261719 372.929688 213.875 C 372.648438 213.480469 372.507812 213.023438 372.507812 212.5 L 374.101562 212.5 C 374.132812 212.898438 374.28125 213.21875 374.554688 213.46875 C 374.835938 213.71875 375.21875 213.84375 375.710938 213.84375 C 376.21875 213.84375 376.617188 213.726562 376.898438 213.484375 C 377.1875 213.234375 377.335938 212.914062 377.335938 212.515625 C 377.335938 212.214844 377.246094 211.96875 377.070312 211.78125 C 376.890625 211.585938 376.667969 211.433594 376.398438 211.328125 C 376.136719 211.226562 375.773438 211.117188 375.304688 211 C 374.71875 210.84375 374.242188 210.6875 373.867188 210.53125 C 373.5 210.367188 373.1875 210.117188 372.929688 209.78125 C 372.667969 209.4375 372.539062 208.984375 372.539062 208.421875 C 372.539062 207.902344 372.667969 207.449219 372.929688 207.0625 C 373.1875 206.667969 373.554688 206.367188 374.023438 206.15625 C 374.492188 205.949219 375.03125 205.84375 375.648438 205.84375 C 376.523438 205.84375 377.234375 206.0625 377.789062 206.5 C 378.351562 206.9375 378.664062 207.542969 378.726562 208.3125 L 377.085938 208.3125 C 377.0625 207.980469 376.90625 207.699219 376.617188 207.46875 C 376.335938 207.230469 375.960938 207.109375 375.492188 207.109375 C 375.0625 207.109375 374.714844 207.21875 374.445312 207.4375 C 374.171875 207.65625 374.039062 207.96875 374.039062 208.375 C 374.039062 208.648438 374.121094 208.871094 374.289062 209.046875 C 374.464844 209.226562 374.683594 209.367188 374.945312 209.46875 C 375.203125 209.574219 375.558594 209.6875 376.007812 209.8125 C 376.601562 209.980469 377.085938 210.148438 377.460938 210.3125 C 377.84375 210.46875 378.167969 210.71875 378.429688 211.0625 C 378.699219 211.40625 378.835938 211.867188 378.835938 212.4375 C 378.835938 212.898438 378.710938 213.328125 378.460938 213.734375 C 378.210938 214.140625 377.84375 214.46875 377.367188 214.71875 C 376.898438 214.96875 376.34375 215.09375 375.710938 215.09375 Z M 384.703125 215.09375 C 383.859375 215.09375 383.082031 214.898438 382.375 214.5 C 381.675781 214.105469 381.117188 213.554688 380.703125 212.84375 C 380.296875 212.136719 380.09375 211.34375 380.09375 210.46875 C 380.09375 209.585938 380.296875 208.792969 380.703125 208.09375 C 381.117188 207.386719 381.675781 206.835938 382.375 206.4375 C 383.082031 206.042969 383.859375 205.84375 384.703125 205.84375 C 385.554688 205.84375 386.332031 206.042969 387.03125 206.4375 C 387.738281 206.835938 388.296875 207.386719 388.703125 208.09375 C 389.117188 208.792969 389.328125 209.585938 389.328125 210.46875 C 389.328125 211.34375 389.117188 212.136719 388.703125 212.84375 C 388.296875 213.554688 387.738281 214.105469 387.03125 214.5 C 386.332031 214.898438 385.554688 215.09375 384.703125 215.09375 Z M 384.703125 213.796875 C 385.304688 213.796875 385.835938 213.664062 386.296875 213.390625 C 386.765625 213.121094 387.128906 212.734375 387.390625 212.234375 C 387.660156 211.726562 387.796875 211.136719 387.796875 210.46875 C 387.796875 209.804688 387.660156 209.21875 387.390625 208.71875 C 387.128906 208.210938 386.765625 207.820312 386.296875 207.546875 C 385.835938 207.277344 385.304688 207.140625 384.703125 207.140625 C 384.109375 207.140625 383.578125 207.277344 383.109375 207.546875 C 382.640625 207.820312 382.269531 208.210938 382 208.71875 C 381.738281 209.21875 381.609375 209.804688 381.609375 210.46875 C 381.609375 211.136719 381.738281 211.726562 382 212.234375 C 382.269531 212.734375 382.640625 213.121094 383.109375 213.390625 C 383.578125 213.664062 384.109375 213.796875 384.703125 213.796875 Z M 398.191406 215 L 396.722656 215 L 392.253906 208.25 L 392.253906 215 L 390.769531 215 L 390.769531 205.953125 L 392.253906 205.953125 L 396.722656 212.6875 L 396.722656 205.953125 L 398.191406 205.953125 Z M 407.558594 211.59375 C 407.285156 211.59375 407.058594 211.507812 406.871094 211.328125 C 406.691406 211.140625 406.605469 210.914062 406.605469 210.640625 C 406.605469 210.371094 406.691406 210.148438 406.871094 209.96875 C 407.058594 209.78125 407.285156 209.6875 407.558594 209.6875 C 407.816406 209.6875 408.035156 209.78125 408.214844 209.96875 C 408.402344 210.148438 408.496094 210.371094 408.496094 210.640625 C 408.496094 210.914062 408.402344 211.140625 408.214844 211.328125 C 408.035156 211.507812 407.816406 211.59375 407.558594 211.59375 Z M 418.320312 207.15625 L 418.320312 209.8125 L 421.445312 209.8125 L 421.445312 211.015625 L 418.320312 211.015625 L 418.320312 213.796875 L 421.835938 213.796875 L 421.835938 215 L 416.835938 215 L 416.835938 205.953125 L 421.835938 205.953125 L 421.835938 207.15625 Z M 431.445312 205.96875 L 428.054688 215 L 426.335938 215 L 422.929688 205.96875 L 424.507812 205.96875 L 427.195312 213.484375 L 429.882812 205.96875 Z M 434.152344 207.15625 L 434.152344 209.8125 L 437.277344 209.8125 L 437.277344 211.015625 L 434.152344 211.015625 L 434.152344 213.796875 L 437.667969 213.796875 L 437.667969 215 L 432.667969 215 L 432.667969 205.953125 L 437.667969 205.953125 L 437.667969 207.15625 Z M 444.183594 215 L 442.105469 211.390625 L 440.964844 211.390625 L 440.964844 215 L 439.480469 215 L 439.480469 205.96875 L 442.605469 205.96875 C 443.300781 205.96875 443.890625 206.089844 444.371094 206.328125 C 444.847656 206.570312 445.207031 206.898438 445.449219 207.3125 C 445.6875 207.71875 445.808594 208.171875 445.808594 208.671875 C 445.808594 209.257812 445.636719 209.792969 445.292969 210.28125 C 444.949219 210.761719 444.421875 211.085938 443.714844 211.25 L 445.949219 215 Z M 440.964844 210.203125 L 442.605469 210.203125 C 443.15625 210.203125 443.574219 210.070312 443.855469 209.796875 C 444.136719 209.515625 444.277344 209.140625 444.277344 208.671875 C 444.277344 208.203125 444.136719 207.839844 443.855469 207.578125 C 443.582031 207.308594 443.167969 207.171875 442.605469 207.171875 L 440.964844 207.171875 Z M 454.402344 205.96875 L 451.417969 211.71875 L 451.417969 215 L 449.933594 215 L 449.933594 211.71875 L 446.917969 205.96875 L 448.574219 205.96875 L 450.667969 210.390625 L 452.761719 205.96875 Z M 463.644531 215 L 461.566406 211.390625 L 460.425781 211.390625 L 460.425781 215 L 458.941406 215 L 458.941406 205.96875 L 462.066406 205.96875 C 462.761719 205.96875 463.351562 206.089844 463.832031 206.328125 C 464.308594 206.570312 464.667969 206.898438 464.910156 207.3125 C 465.148438 207.71875 465.269531 208.171875 465.269531 208.671875 C 465.269531 209.257812 465.097656 209.792969 464.753906 210.28125 C 464.410156 210.761719 463.882812 211.085938 463.175781 211.25 L 465.410156 215 Z M 460.425781 210.203125 L 462.066406 210.203125 C 462.617188 210.203125 463.035156 210.070312 463.316406 209.796875 C 463.597656 209.515625 463.738281 209.140625 463.738281 208.671875 C 463.738281 208.203125 463.597656 207.839844 463.316406 207.578125 C 463.042969 207.308594 462.628906 207.171875 462.066406 207.171875 L 460.425781 207.171875 Z M 472.613281 213.15625 L 468.832031 213.15625 L 468.175781 215 L 466.628906 215 L 469.863281 205.953125 L 471.582031 205.953125 L 474.816406 215 L 473.269531 215 Z M 472.191406 211.9375 L 470.722656 207.75 L 469.253906 211.9375 Z M 475.734375 210.46875 C 475.734375 209.585938 475.9375 208.792969 476.34375 208.09375 C 476.757812 207.386719 477.316406 206.835938 478.015625 206.4375 C 478.722656 206.042969 479.5 205.84375 480.34375 205.84375 C 481.300781 205.84375 482.15625 206.085938 482.90625 206.5625 C 483.65625 207.03125 484.203125 207.699219 484.546875 208.5625 L 482.765625 208.5625 C 482.523438 208.085938 482.195312 207.730469 481.78125 207.5 C 481.375 207.261719 480.894531 207.140625 480.34375 207.140625 C 479.75 207.140625 479.21875 207.277344 478.75 207.546875 C 478.28125 207.820312 477.910156 208.210938 477.640625 208.71875 C 477.378906 209.21875 477.25 209.804688 477.25 210.46875 C 477.25 211.136719 477.378906 211.71875 477.640625 212.21875 C 477.910156 212.71875 478.28125 213.109375 478.75 213.390625 C 479.21875 213.664062 479.75 213.796875 480.34375 213.796875 C 480.894531 213.796875 481.375 213.683594 481.78125 213.453125 C 482.195312 213.214844 482.523438 212.855469 482.765625 212.375 L 484.546875 212.375 C 484.203125 213.242188 483.65625 213.90625 482.90625 214.375 C 482.15625 214.84375 481.300781 215.078125 480.34375 215.078125 C 479.5 215.078125 478.722656 214.882812 478.015625 214.484375 C 477.316406 214.089844 476.757812 213.542969 476.34375 212.84375 C 475.9375 212.136719 475.734375 211.34375 475.734375 210.46875 Z M 487.753906 207.15625 L 487.753906 209.8125 L 490.878906 209.8125 L 490.878906 211.015625 L 487.753906 211.015625 L 487.753906 213.796875 L 491.269531 213.796875 L 491.269531 215 L 486.269531 215 L 486.269531 205.953125 L 491.269531 205.953125 L 491.269531 207.15625 Z M 500.496094 211.59375 C 500.222656 211.59375 499.996094 211.507812 499.808594 211.328125 C 499.628906 211.140625 499.542969 210.914062 499.542969 210.640625 C 499.542969 210.371094 499.628906 210.148438 499.808594 209.96875 C 499.996094 209.78125 500.222656 209.6875 500.496094 209.6875 C 500.753906 209.6875 500.972656 209.78125 501.152344 209.96875 C 501.339844 210.148438 501.433594 210.371094 501.433594 210.640625 C 501.433594 210.914062 501.339844 211.140625 501.152344 211.328125 C 500.972656 211.507812 500.753906 211.59375 500.496094 211.59375 Z M 511.257812 207.15625 L 511.257812 209.8125 L 514.382812 209.8125 L 514.382812 211.015625 L 511.257812 211.015625 L 511.257812 213.796875 L 514.773438 213.796875 L 514.773438 215 L 509.773438 215 L 509.773438 205.953125 L 514.773438 205.953125 L 514.773438 207.15625 Z M 524.382812 205.96875 L 520.992188 215 L 519.273438 215 L 515.867188 205.96875 L 517.445312 205.96875 L 520.132812 213.484375 L 522.820312 205.96875 Z M 527.089844 207.15625 L 527.089844 209.8125 L 530.214844 209.8125 L 530.214844 211.015625 L 527.089844 211.015625 L 527.089844 213.796875 L 530.605469 213.796875 L 530.605469 215 L 525.605469 215 L 525.605469 205.953125 L 530.605469 205.953125 L 530.605469 207.15625 Z M 537.121094 215 L 535.042969 211.390625 L 533.902344 211.390625 L 533.902344 215 L 532.417969 215 L 532.417969 205.96875 L 535.542969 205.96875 C 536.238281 205.96875 536.828125 206.089844 537.308594 206.328125 C 537.785156 206.570312 538.144531 206.898438 538.386719 207.3125 C 538.625 207.71875 538.746094 208.171875 538.746094 208.671875 C 538.746094 209.257812 538.574219 209.792969 538.230469 210.28125 C 537.886719 210.761719 537.359375 211.085938 536.652344 211.25 L 538.886719 215 Z M 533.902344 210.203125 L 535.542969 210.203125 C 536.09375 210.203125 536.511719 210.070312 536.792969 209.796875 C 537.074219 209.515625 537.214844 209.140625 537.214844 208.671875 C 537.214844 208.203125 537.074219 207.839844 536.792969 207.578125 C 536.519531 207.308594 536.105469 207.171875 535.542969 207.171875 L 533.902344 207.171875 Z M 547.335938 205.96875 L 544.351562 211.71875 L 544.351562 215 L 542.867188 215 L 542.867188 211.71875 L 539.851562 205.96875 L 541.507812 205.96875 L 543.601562 210.390625 L 545.695312 205.96875 Z M 554.832031 205.96875 C 555.800781 205.96875 556.644531 206.152344 557.363281 206.515625 C 558.089844 206.882812 558.648438 207.414062 559.035156 208.109375 C 559.429688 208.796875 559.628906 209.601562 559.628906 210.515625 C 559.628906 211.433594 559.429688 212.230469 559.035156 212.90625 C 558.648438 213.585938 558.089844 214.105469 557.363281 214.46875 C 556.644531 214.824219 555.800781 215 554.832031 215 L 551.878906 215 L 551.878906 205.96875 Z M 554.832031 213.796875 C 555.894531 213.796875 556.707031 213.511719 557.269531 212.9375 C 557.832031 212.367188 558.113281 211.558594 558.113281 210.515625 C 558.113281 209.464844 557.832031 208.648438 557.269531 208.0625 C 556.707031 207.46875 555.894531 207.171875 554.832031 207.171875 L 553.363281 207.171875 L 553.363281 213.796875 Z M 565.800781 215 L 563.722656 211.390625 L 562.582031 211.390625 L 562.582031 215 L 561.097656 215 L 561.097656 205.96875 L 564.222656 205.96875 C 564.917969 205.96875 565.507812 206.089844 565.988281 206.328125 C 566.464844 206.570312 566.824219 206.898438 567.066406 207.3125 C 567.304688 207.71875 567.425781 208.171875 567.425781 208.671875 C 567.425781 209.257812 567.253906 209.792969 566.910156 210.28125 C 566.566406 210.761719 566.039062 211.085938 565.332031 211.25 L 567.566406 215 Z M 562.582031 210.203125 L 564.222656 210.203125 C 564.773438 210.203125 565.191406 210.070312 565.472656 209.796875 C 565.753906 209.515625 565.894531 209.140625 565.894531 208.671875 C 565.894531 208.203125 565.753906 207.839844 565.472656 207.578125 C 565.199219 207.308594 564.785156 207.171875 564.222656 207.171875 L 562.582031 207.171875 Z M 570.796875 205.96875 L 570.796875 215 L 569.3125 215 L 569.3125 205.96875 Z M 580.542969 205.96875 L 577.152344 215 L 575.433594 215 L 572.027344 205.96875 L 573.605469 205.96875 L 576.292969 213.484375 L 578.980469 205.96875 Z M 583.25 207.15625 L 583.25 209.8125 L 586.375 209.8125 L 586.375 211.015625 L 583.25 211.015625 L 583.25 213.796875 L 586.765625 213.796875 L 586.765625 215 L 581.765625 215 L 581.765625 205.953125 L 586.765625 205.953125 L 586.765625 207.15625 Z M 593.28125 215 L 591.203125 211.390625 L 590.0625 211.390625 L 590.0625 215 L 588.578125 215 L 588.578125 205.96875 L 591.703125 205.96875 C 592.398438 205.96875 592.988281 206.089844 593.46875 206.328125 C 593.945312 206.570312 594.304688 206.898438 594.546875 207.3125 C 594.785156 207.71875 594.90625 208.171875 594.90625 208.671875 C 594.90625 209.257812 594.734375 209.792969 594.390625 210.28125 C 594.046875 210.761719 593.519531 211.085938 592.8125 211.25 L 595.046875 215 Z M 590.0625 210.203125 L 591.703125 210.203125 C 592.253906 210.203125 592.671875 210.070312 592.953125 209.796875 C 593.234375 209.515625 593.375 209.140625 593.375 208.671875 C 593.375 208.203125 593.234375 207.839844 592.953125 207.578125 C 592.679688 207.308594 592.265625 207.171875 591.703125 207.171875 L 590.0625 207.171875 Z M 595.824219 215 "/>
<path fill-rule="nonzero" fill="rgb(88.2%, 2.4%, 0%)" fill-opacity="0.6" d="M 138 140 C 138 144 132 144 132 140 C 132 136 138 136 138 140 "/>
<path fill-rule="nonzero" fill="rgb(88.2%, 2.4%, 0%)" fill-opacity="0.6" d="M 768 140 C 768 144 762 144 762 140 C 762 136 768 136 768 140 "/>
</svg>
